<svg width="110" height="42" viewBox="0 0 110 42" fill="none" xmlns="http://www.w3.org/2000/svg">
<path d="M11.33 30.51C9.75 30.51 7.92 30.23 5.84 29.67C5.96 27.71 6.09 26.26 6.23 25.32L7.94 24.99L9.83 27C10.49 27.2 11.23 27.3 12.05 27.3C12.51 27.3 12.87 27.27 13.13 27.21C13.19 27.05 13.22 26.83 13.22 26.55C13.22 26.31 13.16 26.11 13.04 25.95C12.94 25.79 12.7 25.6 12.32 25.38C11.94 25.16 11.28 24.82 10.34 24.36C9.16 23.74 8.26 23.19 7.64 22.71C7.02 22.21 6.57 21.7 6.29 21.18C6.03 20.66 5.9 20.04 5.9 19.32C5.9 17.72 6.49 16.45 7.67 15.51C8.87 14.57 10.49 14.1 12.53 14.1C13.37 14.1 14.25 14.2 15.17 14.4C16.11 14.58 16.95 14.83 17.69 15.15C17.69 16.45 17.6 17.9 17.42 19.5L15.86 19.74L13.85 17.58C13.33 17.42 12.57 17.34 11.57 17.34C11.41 17.34 11.09 17.36 10.61 17.4C10.55 17.52 10.52 17.71 10.52 17.97C10.52 18.25 10.6 18.5 10.76 18.72C10.92 18.92 11.2 19.15 11.6 19.41C12.02 19.65 12.68 20 13.58 20.46C14.9 21.1 15.89 21.66 16.55 22.14C17.23 22.6 17.7 23.07 17.96 23.55C18.24 24.03 18.38 24.61 18.38 25.29C18.38 26.93 17.75 28.21 16.49 29.13C15.25 30.05 13.53 30.51 11.33 30.51ZM20.8381 7.8L25.9381 6.45L27.1681 11.01L22.0981 12.39L20.8381 7.8ZM19.5781 27.24L21.6781 26.61V19.32C21.6781 18.88 21.6381 18.6 21.5581 18.48C21.4981 18.34 21.3281 18.19 21.0481 18.03L19.7281 17.31L19.8781 15.06C21.5381 14.74 22.8181 14.51 23.7181 14.37C24.6381 14.21 25.4781 14.12 26.2381 14.1C26.4981 14.96 26.6581 15.6 26.7181 16.02V25.62C26.7181 26.04 26.7481 26.32 26.8081 26.46C26.8681 26.6 27.0381 26.75 27.3181 26.91L28.7881 27.75L28.6681 30H19.6681L19.5781 27.24ZM36.9985 30.36C34.6585 30.36 32.8485 29.65 31.5685 28.23C30.3085 26.81 29.6785 24.85 29.6785 22.35C29.6785 20.61 29.9885 19.12 30.6085 17.88C31.2285 16.62 32.1085 15.66 33.2485 15C34.3885 14.34 35.7185 14.01 37.2385 14.01C39.4985 14.01 41.2285 14.73 42.4285 16.17C43.6485 17.61 44.2285 19.66 44.1685 22.32L35.0485 24C35.3285 24.84 35.7185 25.46 36.2185 25.86C36.7385 26.24 37.4185 26.43 38.2585 26.43C38.8385 26.43 39.5285 26.35 40.3285 26.19C41.1285 26.01 41.9385 25.77 42.7585 25.47L43.4485 28.44C42.7085 29 41.7485 29.46 40.5685 29.82C39.3885 30.18 38.1985 30.36 36.9985 30.36ZM39.2485 19.8C39.2085 19.04 38.9885 18.49 38.5885 18.15C38.2085 17.79 37.6685 17.61 36.9685 17.61C36.3885 17.61 35.8385 17.69 35.3185 17.85C34.8985 18.83 34.7085 19.89 34.7485 21.03L39.2485 19.8ZM52.4413 30.39C50.6813 30.39 49.3813 29.96 48.5413 29.1C47.7013 28.22 47.2813 26.89 47.2813 25.11V17.82H45.1812V15.63L50.5813 10.71L52.3213 10.92V14.31H57.3613V17.85H52.3213V24.03C52.3213 24.99 52.4513 25.63 52.7113 25.95C52.9913 26.27 53.5213 26.43 54.3013 26.43C54.9613 26.43 55.8813 26.34 57.0613 26.16L57.4213 29.22C56.7013 29.56 55.8913 29.84 54.9913 30.06C54.1113 30.28 53.2613 30.39 52.4413 30.39ZM66.0317 30.36C63.6917 30.36 61.8817 29.65 60.6017 28.23C59.3417 26.81 58.7117 24.85 58.7117 22.35C58.7117 20.61 59.0217 19.12 59.6417 17.88C60.2617 16.62 61.1417 15.66 62.2817 15C63.4217 14.34 64.7517 14.01 66.2717 14.01C68.5317 14.01 70.2617 14.73 71.4617 16.17C72.6817 17.61 73.2617 19.66 73.2017 22.32L64.0817 24C64.3617 24.84 64.7517 25.46 65.2517 25.86C65.7717 26.24 66.4517 26.43 67.2917 26.43C67.8717 26.43 68.5617 26.35 69.3617 26.19C70.1617 26.01 70.9717 25.77 71.7917 25.47L72.4817 28.44C71.7417 29 70.7817 29.46 69.6017 29.82C68.4217 30.18 67.2317 30.36 66.0317 30.36ZM68.2817 19.8C68.2417 19.04 68.0217 18.49 67.6217 18.15C67.2417 17.79 66.7017 17.61 66.0017 17.61C65.4217 17.61 64.8717 17.69 64.3517 17.85C63.9317 18.83 63.7417 19.89 63.7817 21.03L68.2817 19.8Z" fill="#3DA9FC"/>
<mask id="path-2-outside-1_706_24" maskUnits="userSpaceOnUse" x="74" y="11" width="34" height="24" fill="black">
<rect fill="white" x="74" y="11" width="34" height="24"/>
<path d="M91.362 20.1C91.362 21.1167 91.1287 22.05 90.662 22.9C90.1953 23.7333 89.4787 24.4083 88.512 24.925C87.5453 25.4417 86.3453 25.7 84.912 25.7H82.262V32H77.987V14.45H84.912C86.312 14.45 87.4953 14.6917 88.462 15.175C89.4287 15.6583 90.1537 16.325 90.637 17.175C91.1203 18.025 91.362 19 91.362 20.1ZM84.587 22.3C85.4037 22.3 86.012 22.1083 86.412 21.725C86.812 21.3417 87.012 20.8 87.012 20.1C87.012 19.4 86.812 18.8583 86.412 18.475C86.012 18.0917 85.4037 17.9 84.587 17.9H82.262V22.3H84.587ZM97.8626 17.875V21.425H103.588V24.725H97.8626V28.575H104.338V32H93.5876V14.45H104.338V17.875H97.8626Z"/>
</mask>
<path d="M91.362 20.1C91.362 21.1167 91.1287 22.05 90.662 22.9C90.1953 23.7333 89.4787 24.4083 88.512 24.925C87.5453 25.4417 86.3453 25.7 84.912 25.7H82.262V32H77.987V14.45H84.912C86.312 14.45 87.4953 14.6917 88.462 15.175C89.4287 15.6583 90.1537 16.325 90.637 17.175C91.1203 18.025 91.362 19 91.362 20.1ZM84.587 22.3C85.4037 22.3 86.012 22.1083 86.412 21.725C86.812 21.3417 87.012 20.8 87.012 20.1C87.012 19.4 86.812 18.8583 86.412 18.475C86.012 18.0917 85.4037 17.9 84.587 17.9H82.262V22.3H84.587ZM97.8626 17.875V21.425H103.588V24.725H97.8626V28.575H104.338V32H93.5876V14.45H104.338V17.875H97.8626Z" fill="white"/>
<path d="M90.662 22.9L93.2795 24.3658L93.2857 24.3548L93.2917 24.3438L90.662 22.9ZM88.512 24.925L87.0979 22.2792L87.0979 22.2792L88.512 24.925ZM82.262 25.7V22.7H79.262V25.7H82.262ZM82.262 32V35H85.262V32H82.262ZM77.987 32H74.987V35H77.987V32ZM77.987 14.45V11.45H74.987V14.45H77.987ZM88.462 15.175L89.8037 12.4917L89.8037 12.4917L88.462 15.175ZM82.262 17.9V14.9H79.262V17.9H82.262ZM82.262 22.3H79.262V25.3H82.262V22.3ZM88.362 20.1C88.362 20.6373 88.2441 21.0704 88.0323 21.4562L93.2917 24.3438C94.0132 23.0296 94.362 21.5961 94.362 20.1H88.362ZM88.0445 21.4342C87.8975 21.6967 87.6354 21.9919 87.0979 22.2792L89.9261 27.5708C91.322 26.8247 92.4932 25.77 93.2795 24.3658L88.0445 21.4342ZM87.0979 22.2792C86.6796 22.5028 85.9988 22.7 84.912 22.7V28.7C86.6919 28.7 88.4111 28.3806 89.9261 27.5708L87.0979 22.2792ZM84.912 22.7H82.262V28.7H84.912V22.7ZM79.262 25.7V32H85.262V25.7H79.262ZM82.262 29H77.987V35H82.262V29ZM80.987 32V14.45H74.987V32H80.987ZM77.987 17.45H84.912V11.45H77.987V17.45ZM84.912 17.45C85.9791 17.45 86.6747 17.6355 87.1204 17.8583L89.8037 12.4917C88.316 11.7479 86.6449 11.45 84.912 11.45V17.45ZM87.1204 17.8583C87.6136 18.1049 87.8703 18.3785 88.0291 18.6579L93.2449 15.6921C92.4371 14.2715 91.2437 13.2118 89.8037 12.4917L87.1204 17.8583ZM88.0291 18.6579C88.2246 19.0017 88.362 19.4537 88.362 20.1H94.362C94.362 18.5463 94.0161 17.0483 93.2449 15.6921L88.0291 18.6579ZM84.587 25.3C85.8147 25.3 87.3132 25.0166 88.4877 23.891L84.3363 19.559C84.5161 19.3868 84.6854 19.3166 84.7542 19.2949C84.8103 19.2773 84.7708 19.3 84.587 19.3V25.3ZM88.4877 23.891C89.6249 22.8012 90.012 21.3895 90.012 20.1H84.012C84.012 20.1684 84.0019 20.1162 84.0477 19.9921C84.0985 19.8547 84.1939 19.6955 84.3363 19.559L88.4877 23.891ZM90.012 20.1C90.012 18.8105 89.6249 17.3988 88.4877 16.309L84.3363 20.641C84.1939 20.5045 84.0985 20.3453 84.0477 20.2079C84.0019 20.0838 84.012 20.0316 84.012 20.1H90.012ZM88.4877 16.309C87.3132 15.1834 85.8147 14.9 84.587 14.9V20.9C84.7708 20.9 84.8103 20.9227 84.7542 20.9051C84.6854 20.8834 84.5161 20.8132 84.3363 20.641L88.4877 16.309ZM84.587 14.9H82.262V20.9H84.587V14.9ZM79.262 17.9V22.3H85.262V17.9H79.262ZM82.262 25.3H84.587V19.3H82.262V25.3ZM97.8626 17.875V14.875H94.8626V17.875H97.8626ZM97.8626 21.425H94.8626V24.425H97.8626V21.425ZM103.588 21.425H106.588V18.425H103.588V21.425ZM103.588 24.725V27.725H106.588V24.725H103.588ZM97.8626 24.725V21.725H94.8626V24.725H97.8626ZM97.8626 28.575H94.8626V31.575H97.8626V28.575ZM104.338 28.575H107.338V25.575H104.338V28.575ZM104.338 32V35H107.338V32H104.338ZM93.5876 32H90.5876V35H93.5876V32ZM93.5876 14.45V11.45H90.5876V14.45H93.5876ZM104.338 14.45H107.338V11.45H104.338V14.45ZM104.338 17.875V20.875H107.338V17.875H104.338ZM94.8626 17.875V21.425H100.863V17.875H94.8626ZM97.8626 24.425H103.588V18.425H97.8626V24.425ZM100.588 21.425V24.725H106.588V21.425H100.588ZM103.588 21.725H97.8626V27.725H103.588V21.725ZM94.8626 24.725V28.575H100.863V24.725H94.8626ZM97.8626 31.575H104.338V25.575H97.8626V31.575ZM101.338 28.575V32H107.338V28.575H101.338ZM104.338 29H93.5876V35H104.338V29ZM96.5876 32V14.45H90.5876V32H96.5876ZM93.5876 17.45H104.338V11.45H93.5876V17.45ZM101.338 14.45V17.875H107.338V14.45H101.338ZM104.338 14.875H97.8626V20.875H104.338V14.875Z" fill="#3DA9FC" mask="url(#path-2-outside-1_706_24)"/>
</svg>
