<svg width="28" height="28" viewBox="0 0 28 28" fill="none" xmlns="http://www.w3.org/2000/svg">
<path d="M23.7158 9.2958C23.6228 9.20207 23.5122 9.12768 23.3904 9.07691C23.2685 9.02614 23.1378 9 23.0058 9C22.8738 9 22.7431 9.02614 22.6212 9.07691C22.4994 9.12768 22.3888 9.20207 22.2958 9.2958L16.0058 15.5958L11.7158 11.2958C11.6228 11.2021 11.5122 11.1277 11.3904 11.0769C11.2685 11.0261 11.1378 11 11.0058 11C10.8738 11 10.7431 11.0261 10.6212 11.0769C10.4994 11.1277 10.3888 11.2021 10.2958 11.2958L4.2958 17.2958C4.20207 17.3888 4.12768 17.4994 4.07691 17.6212C4.02614 17.7431 4 17.8738 4 18.0058C4 18.1378 4.02614 18.2685 4.07691 18.3904C4.12768 18.5122 4.20207 18.6228 4.2958 18.7158C4.38876 18.8095 4.49936 18.8839 4.62122 18.9347C4.74308 18.9855 4.87379 19.0116 5.0058 19.0116C5.13781 19.0116 5.26852 18.9855 5.39037 18.9347C5.51223 18.8839 5.62284 18.8095 5.7158 18.7158L11.0058 13.4158L15.2958 17.7158C15.3888 17.8095 15.4994 17.8839 15.6212 17.9347C15.7431 17.9855 15.8738 18.0116 16.0058 18.0116C16.1378 18.0116 16.2685 17.9855 16.3904 17.9347C16.5122 17.8839 16.6228 17.8095 16.7158 17.7158L23.7158 10.7158C23.8095 10.6228 23.8839 10.5122 23.9347 10.3904C23.9855 10.2685 24.0116 10.1378 24.0116 10.0058C24.0116 9.87379 23.9855 9.74308 23.9347 9.62122C23.8839 9.49936 23.8095 9.38876 23.7158 9.2958Z" fill="#66D43F"/>
</svg>
