<svg width="20" height="20" viewBox="0 0 20 20" fill="none" xmlns="http://www.w3.org/2000/svg">
<path d="M7.15633 9.28591H12.8706C12.9761 9.28521 13.0802 9.26115 13.1753 9.21546C13.2704 9.16976 13.3541 9.10356 13.4206 9.02163C13.4904 8.94129 13.5414 8.84637 13.5699 8.74379C13.5983 8.64122 13.6034 8.53359 13.5849 8.42877L12.8706 4.85734C12.8372 4.69357 12.7475 4.5467 12.6169 4.44229C12.4864 4.33788 12.3234 4.28254 12.1563 4.28591H7.87061C7.70351 4.28254 7.54051 4.33788 7.41 4.44229C7.27949 4.5467 7.18972 4.69357 7.15633 4.85734L6.44204 8.42877C6.4216 8.53253 6.42445 8.63954 6.45039 8.74206C6.47633 8.84459 6.52471 8.94007 6.59204 9.02163C6.66002 9.10545 6.74611 9.17277 6.84385 9.21854C6.94158 9.26432 7.04842 9.28735 7.15633 9.28591ZM8.45633 5.71448H11.5706L11.9992 7.85734H8.02776L8.45633 5.71448ZM17.1563 11.2859C17.1229 11.1221 17.0332 10.9753 16.9027 10.8709C16.7721 10.7664 16.6091 10.7111 16.442 10.7145H12.1563C11.9892 10.7111 11.8262 10.7664 11.6957 10.8709C11.5652 10.9753 11.4754 11.1221 11.442 11.2859L10.7278 14.8573C10.7073 14.9611 10.7102 15.0681 10.7361 15.1706C10.762 15.2732 10.8104 15.3686 10.8778 15.4502C10.9457 15.534 11.0318 15.6013 11.1296 15.6471C11.2273 15.6929 11.3341 15.7159 11.442 15.7145H17.1563C17.2618 15.7138 17.3659 15.6897 17.461 15.644C17.5561 15.5983 17.6399 15.5321 17.7063 15.4502C17.7762 15.3699 17.8271 15.2749 17.8556 15.1724C17.884 15.0698 17.8891 14.9622 17.8706 14.8573L17.1563 11.2859ZM12.3135 14.2859L12.742 12.1431H15.8563L16.2849 14.2859H12.3135ZM7.87061 10.7145H3.5849C3.4178 10.7111 3.2548 10.7664 3.12429 10.8709C2.99377 10.9753 2.90401 11.1221 2.87061 11.2859L2.15633 14.8573C2.13588 14.9611 2.13873 15.0681 2.16467 15.1706C2.19061 15.2732 2.239 15.3686 2.30633 15.4502C2.37431 15.534 2.4604 15.6013 2.55813 15.6471C2.65587 15.6929 2.7627 15.7159 2.87061 15.7145H8.5849C8.6904 15.7138 8.79444 15.6897 8.88954 15.644C8.98464 15.5983 9.06843 15.5321 9.1349 15.4502C9.20473 15.3699 9.25572 15.2749 9.28414 15.1724C9.31256 15.0698 9.3177 14.9622 9.29919 14.8573L8.5849 11.2859C8.55151 11.1221 8.46174 10.9753 8.33123 10.8709C8.20071 10.7664 8.03772 10.7111 7.87061 10.7145ZM3.74204 14.2859L4.17061 12.1431H7.2849L7.71347 14.2859H3.74204Z" fill="#EF4565"/>
</svg>
